<svg width="0" height="0" class="hidden">
    <symbol fill="none" xmlns="http://www.w3.org/2000/svg" viewBox="0 0 80 80" id="action">
        <path d="M10.017 50.013l1.25 7.5c.053.317.226.602.483.795l9.688 7.265 1.126 3.38a1.25 1.25 0 001.392.838l.6-.1-.741 2.221a1.251 1.251 0 00-.065.396v3.75a1.25 1.25 0 001.25 1.25h30a1.25 1.25 0 001.212-1.556l-.753-2.992 7.671 4.383a1.25 1.25 0 001.66-.392s2.602-3.934 2.614-3.964c.005-.012 1.31-5.176 1.31-5.176a1.25 1.25 0 00-.654-1.421l-2.5-1.25a1.25 1.25 0 00-1.443.234s-2.728 2.787-2.788 2.952l-3.04-1.699 5.146-5.789a1.25 1.25 0 00.31-.706l1.25-12.5a1.253 1.253 0 00-.019-.37L63.02 37.28a10.397 10.397 0 00-7.674-8.048l-2.494-.624-6.965-2.321L45 24.512V22.62l.75-.562a1.25 1.25 0 00.5-1v-2.5a1.25 1.25 0 001.25-1.25v-4.804a25.56 25.56 0 001.25-7.9V3.559a1.25 1.25 0 00-1.25-1.25h-6.465a9.719 9.719 0 00-6.77 2.72l-2.029 1.014a6.306 6.306 0 000 11.281l.274.137a1.25 1.25 0 001.24 1.098v2.5a1.25 1.25 0 00.5 1l.75.562v1.892l-.905 1.811-5.586 2.235h-.818a12.05 12.05 0 00-11.886 10.069l-.735 4.404-4.796 5.995a1.252 1.252 0 00-.257.987zM26.25 72.511l1.095-3.285 4.11-.685a1.25 1.25 0 00.98-.838l.832-2.492 9.18 3.672-.987 1.481a1.25 1.25 0 00.259 1.67l3.468 2.774H26.25V72.51zm1.634-27.054l.535 4.278-2.692-1.504 2.157-2.774zm10.366-9.15a2.931 2.931 0 003.5 0A11.313 11.313 0 0046.12 29l.124.04a31.778 31.778 0 01-2.426 11.743 31.998 31.998 0 01-2.188 4.327l-.38-.076v-3.975a1.25 1.25 0 00-2.5 0v4.024l-3.605.9-4.586-2.292a1.245 1.245 0 00-.392-.12L30 42.23V30.654l3.895-1.558a11.313 11.313 0 004.355 7.212zm11.973 36.51l-1.566 1.566-4.481-3.585 1.626-2.44 1.2-.4.032-.013 4.377 2.502-.029.052-1.16 2.318zm-8.44-15.613l3.01-3.31a34.438 34.438 0 006.242-9.757l-2.237 7.828a1.252 1.252 0 00-.048.343v8.788l-6.966-3.892zm9.467-4.721l1.57-5.492.93 1.862v8.054l-2.5 3.5v-7.924zm0-21.759a31.881 31.881 0 01-8.308 21.489l-3.398 3.739-2.515-1.406 1.632-1.632a34.43 34.43 0 0010.063-23.048l2.526.843v.015zM31.127 51.248l-.597-4.778 3.911 1.956c.267.133.573.167.862.094l4.727-1.181.102.02a32 32 0 01-3.238 3.787L34.76 53.28l-3.634-2.03zm-6.953-1.021l12.357 6.905-1.321 1.982a1.25 1.25 0 102.08 1.387l1.43-2.145 1.758.981-1.518 2.277a1.25 1.25 0 102.08 1.387l1.627-2.44 4.33 2.42-1.84 2.956-.552.185a1.25 1.25 0 00-.645.492l-.095.143-10.662-4.265-3.568-3.568a1.25 1.25 0 00-.885-.366H25.6l-4.008-5.011 2.582-3.32zm27.594 24.58l.366-.365c.095-.095.174-.205.234-.325l.569-1.136.46 1.827h-1.63zm11.59-.413l-15.136-8.649.96-1.543L64.46 72.74l-1.103 1.654zm1.889-6.815l.797.398-.61 2.443-1.943-1.086 1.756-1.755zm-6.84-33.846a7.872 7.872 0 012.16 4.036l1.92 9.601-1.19 11.91-5.243 5.898-3.673-2.053 3.636-5.09a1.25 1.25 0 00.233-.727v-8.75a1.25 1.25 0 00-.132-.56l-2.368-4.735V31.409l.989.247a7.9 7.9 0 013.669 2.077zM35 16.058v-2.5h10v2.5h-2.205L40.56 14.94a1.25 1.25 0 00-1.118 0l-2.236 1.118H35zm-3.75-4.375a3.786 3.786 0 012.104-3.405l2.205-1.102c.12-.06.23-.14.325-.235a7.238 7.238 0 015.151-2.133h5.214a23.06 23.06 0 01-.918 6.25H33.75a1.25 1.25 0 00-1.25 1.25v2.197a3.785 3.785 0 01-1.25-2.822zm6.25 6.875c.194 0 .386-.046.56-.132l1.94-.97 1.941.97c.173.087.365.132.559.132h1.25v1.875l-2.5 1.875h-2.5l-2.5-1.875v-1.875h1.25zm.084 6c.216.162.479.25.75.25h3.333c.27 0 .533-.088.75-.25l.083-.063v.313c0 .194.045.385.132.559l1.11 2.218a8.791 8.791 0 01-3.492 6.723.419.419 0 01-.5 0 8.792 8.792 0 01-3.492-6.722l1.11-2.218c.087-.174.132-.366.132-.56v-.313l.084.063zm-20.358 19.78c.134-.166.222-.364.257-.574l.787-4.726a9.55 9.55 0 019.23-7.978v10.819l-4.337 5.576a1.24 1.24 0 00-.625.805l-3.524 4.53a1.25 1.25 0 00.01 1.549l5 6.25a1.25 1.25 0 00.976.469h3.232l2.838 2.837-.768 2.303-5.704.951-.912-2.737a1.25 1.25 0 00-.436-.604l-9.6-7.2-1.075-6.455 4.651-5.814z"
              fill="#fff"></path>
    </symbol>
    <symbol fill="none" xmlns="http://www.w3.org/2000/svg" viewBox="0 0 80 80" id="comedy">
        <path d="M56.812 49.14a1.739 1.739 0 00-2.456.135C50.73 53.329 45.497 55.652 40 55.652c-5.496 0-10.729-2.323-14.357-6.377a1.739 1.739 0 10-2.59 2.32C27.338 56.385 33.515 59.13 40 59.13c6.485 0 12.663-2.747 16.948-7.535a1.74 1.74 0 00-.136-2.456z"
              fill="#fff"></path>
        <path d="M40 0C17.944 0 0 17.944 0 40s17.944 40 40 40 40-17.944 40-40S62.056 0 40 0zm0 76.522C19.86 76.522 3.478 60.139 3.478 40 3.478 19.86 19.861 3.478 40 3.478c20.14 0 36.522 16.383 36.522 36.522 0 20.14-16.383 36.522-36.522 36.522z"
              fill="#fff"></path>
        <path d="M53.913 27.826c-4.795 0-8.696 3.901-8.696 8.696a1.74 1.74 0 003.479 0 5.224 5.224 0 015.217-5.218 5.224 5.224 0 015.217 5.218 1.74 1.74 0 003.479 0c0-4.795-3.901-8.696-8.696-8.696zm-22.609 8.696a1.74 1.74 0 003.479 0c0-4.795-3.901-8.696-8.696-8.696s-8.696 3.901-8.696 8.696a1.74 1.74 0 003.479 0 5.224 5.224 0 015.217-5.218 5.224 5.224 0 015.217 5.218z"
              fill="#fff"></path>
    </symbol>
    <symbol fill="none" xmlns="http://www.w3.org/2000/svg" viewBox="0 0 80 80" id="documentary">
        <path d="M23.622 54.417h2.267a.937.937 0 100-1.875h-2.267a.937.937 0 100 1.875zm10.736 2.373h2.9a.937.937 0 100-1.874h-2.9a.938.938 0 000 1.875zm16.432 4.904h2.424a.938.938 0 000-1.875H50.79a.937.937 0 100 1.875zm-24.942-.463a.938.938 0 00.938.938h2.267a.938.938 0 000-1.875h-2.267a.938.938 0 00-.938.937zm38.24 2.057a.938.938 0 00.937.937h2.742a.938.938 0 000-1.875h-2.742a.937.937 0 00-.937.938zm-49.904-.938h-2.742a.938.938 0 000 1.875h2.742a.938.938 0 000-1.875zm30.14-7.642h2.267a.938.938 0 000-1.875h-2.267a.937.937 0 100 1.875zm-7.652-13.016h6.656a.937.937 0 00.938-.937V36.28a4.266 4.266 0 10-8.532 0v4.475a.937.937 0 00.938.937zm.937-5.412a2.39 2.39 0 114.782 0v3.537h-4.782V36.28zm-4.932-6.388a.938.938 0 00-.938.938v.72a.938.938 0 001.875 0v-.72a.937.937 0 00-.937-.938zm0 3.56a.938.938 0 00-.938.937v5.86a.938.938 0 001.875 0v-5.86a.937.937 0 00-.937-.938zM65.54 48.734a.937.937 0 00-.937-.937H62.02a.938.938 0 000 1.875h2.583a.937.937 0 00.938-.938zm-45.91-6.037a.938.938 0 00-.938-.938h-2.584a.938.938 0 000 1.875h2.584a.938.938 0 00.938-.937z"
              fill="#fff"></path>
        <path d="M72.553 72.333V39.4a2.52 2.52 0 002.452-2.516v-8.54a.938.938 0 00-.938-.938h-3.539a.938.938 0 00-.937.938v1.91H67.68v-1.91a.938.938 0 00-.938-.938h-3.539a.938.938 0 00-.937.938v1.91h-1.911v-1.91a.938.938 0 00-.938-.938h-3.539a.938.938 0 00-.937.938v8.54a2.52 2.52 0 002.451 2.516v5.405H53.51a.938.938 0 00-.937.937v1.91h-.82V27.62h1.589a.938.938 0 00.687-1.574l-13.09-14.134V9.65l6.475-2.818a.937.937 0 00.025-1.709l-6.614-3.106a.938.938 0 00-1.761.447v9.448L25.97 26.046a.939.939 0 00.688 1.574h1.59v20.031h-.821v-1.909a.938.938 0 00-.938-.937h-3.882V39.4a2.52 2.52 0 002.451-2.516v-8.54a.938.938 0 00-.937-.938h-3.54a.938.938 0 00-.937.938v1.91h-1.91v-1.91a.938.938 0 00-.938-.938h-3.54a.938.938 0 00-.937.938v1.91h-1.91v-1.91a.938.938 0 00-.938-.938h-3.54a.938.938 0 00-.937.938v8.54A2.52 2.52 0 007.447 39.4v32.933a4.541 4.541 0 00-4.35 4.531v.672a.937.937 0 00.937.937h71.932a.938.938 0 00.937-.937v-.672a4.541 4.541 0 00-4.35-4.531zM40.938 4.142l3.826 1.797-3.827 1.666V4.142zm15.878 32.742v-7.603h1.664v1.91a.937.937 0 00.937.937h3.786a.938.938 0 00.938-.937v-1.91h1.664v1.91a.937.937 0 00.937.937h3.786a.938.938 0 00.938-.937v-1.91h1.664v7.603a.645.645 0 01-.644.644H57.459a.645.645 0 01-.643-.644zM40 13.66l11.194 12.086h-15.1a.937.937 0 100 1.875h13.782v20.031h-.646v-1.909a.938.938 0 00-.938-.937h-5.84a.938.938 0 00-.938.937v1.91h-3.028v-1.91a.938.938 0 00-.938-.937h-5.84a.938.938 0 00-.938.937v1.91h-.647V27.62h2.533a.937.937 0 100-1.875h-3.85L40 13.66zM25.553 46.68v1.91a.937.937 0 00.938.938h5.217a.938.938 0 00.937-.938v-1.91h3.966v1.91a.937.937 0 00.937.938h4.904a.938.938 0 00.937-.938v-1.91h3.966v1.91a.937.937 0 00.937.938h5.217a.938.938 0 00.938-.938v-1.91h3.656v4.915h-1.778a.937.937 0 100 1.875h1.778v7.71a.938.938 0 001.875 0v-4.073h2.411a.938.938 0 000-1.875h-2.41v-9.489a.938.938 0 00-.712-.909v-5.43h11.411v1.592h-2.48a.937.937 0 100 1.875h2.48v26.914h-2.331a.938.938 0 000 1.875h2.331v.67h-10.7v-7.876a.937.937 0 10-1.875 0v3.433h-1.936a.937.937 0 100 1.875h1.936v2.567H46.236v-4.492h3.986a.938.938 0 000-1.875H46.23a5.388 5.388 0 00-2.609-4.422l-3.14-1.875a.938.938 0 00-.962 0l-3.14 1.875a5.39 5.39 0 00-2.615 4.608v3.004h-2.552a.937.937 0 100 1.876h2.552v1.301H21.897v-5.731h1.778a.937.937 0 100-1.875h-1.778V46.68h3.656zm18.808 19.468v6.181h-8.722v-6.181a3.506 3.506 0 011.701-2.998L40 61.56l2.66 1.588a3.506 3.506 0 011.7 2.998zM6.87 36.884v-7.603h1.663v1.91a.937.937 0 00.938.937h3.786a.938.938 0 00.937-.937v-1.91h1.664v1.91a.937.937 0 00.938.937h3.786a.938.938 0 00.937-.937v-1.91h1.664v7.603a.645.645 0 01-.643.644H7.514a.645.645 0 01-.644-.644zm11.373 20.38h1.778v8.177a.907.907 0 000 .436v3.275H17.61a.938.938 0 000 1.874h2.41v1.302H9.32V50.147h2.474a.937.937 0 100-1.875H9.322v-8.869h11.41v5.43a.937.937 0 00-.71.91v9.646h-1.778a.938.938 0 000 1.875zM4.984 76.598a2.664 2.664 0 012.649-2.395h64.734a2.664 2.664 0 012.649 2.395H4.984z"
              fill="#fff"></path>
    </symbol>
    <symbol fill="none" xmlns="http://www.w3.org/2000/svg" viewBox="0 0 80 80" id="drama">
        <g clip-path="url(#clip0)" fill="#fff">
            <path d="M74.928 3.13l-1.29-.322a90.07 90.07 0 00-43.53 0l-1.288.322a6.689 6.689 0 00-5.073 6.497v9.326a90.14 90.14 0 00-19.131 7.888l-1.17.644A6.673 6.673 0 00.233 35.07L4.13 49.644a41.546 41.546 0 0025.912 28.26l4.018 1.474a12.116 12.116 0 0013.36-3.588l2.744-3.277a40.764 40.764 0 006.223-10.078c.844-.328 1.65-.752 2.399-1.262l3.503-2.452A41.56 41.56 0 0080 24.704V9.627a6.69 6.69 0 00-5.072-6.497zM48.114 70.79l-2.744 3.28a9.425 9.425 0 01-10.394 2.79l-4.018-1.473A38.87 38.87 0 016.718 48.95l-3.9-14.575a4 4 0 011.927-4.543l1.168-.645a87.474 87.474 0 0117.834-7.447v2.964a41.552 41.552 0 0014.246 31.289 25.318 25.318 0 01-7.377 1.771l-10.072.817a1.34 1.34 0 00-.443 2.557l13.352 6.028a6.696 6.696 0 008.204-2.194l2.922-4.065.382.267a12.048 12.048 0 006.913 2.17c.401 0 .79-.05 1.185-.09a38.235 38.235 0 01-4.945 7.537zM40.355 57.9c.366.268.722.557 1.098.82l.927.648-2.903 4.04a4.019 4.019 0 01-4.923 1.313l-8.622-3.884 4.9-.401a28.047 28.047 0 009.523-2.536zm36.967-33.197a38.876 38.876 0 01-16.567 31.822l-3.503 2.452a9.407 9.407 0 01-10.756 0l-3.502-2.452a38.875 38.875 0 01-16.569-31.822V9.627A4.018 4.018 0 0129.47 5.73l1.29-.322a87.36 87.36 0 0142.23 0l1.29.322a4.018 4.018 0 013.043 3.898v15.077z"></path>
            <path d="M46.908 25.143l1.827-1.961c-4.188-4.178-10.967-4.178-15.154 0l-.067.067 1.96 1.827a8.037 8.037 0 0111.434.067zm8.102-1.961l-.066.067 1.96 1.827a8.037 8.037 0 0111.434.067l1.827-1.961c-4.188-4.178-10.967-4.178-15.154 0zM19.098 44.554a8.036 8.036 0 016.19.855l1.248-2.372c-5.125-2.96-11.678-1.204-14.637 3.92l-.047.082 1.159.67 1.205.586a7.977 7.977 0 014.882-3.74zm47.268-6.944l-9.94 1.81a25.43 25.43 0 01-9.107 0l-9.941-1.81a1.339 1.339 0 00-1.088 2.355l11.342 9.277a6.717 6.717 0 008.482 0l11.34-9.28a1.339 1.339 0 00-1.088-2.354v.003zm-11.948 9.561a4.027 4.027 0 01-5.09 0l-7.332-5.998 4.844.88c3.327.609 6.736.609 10.062 0l4.845-.88-7.33 5.998z"></path>
        </g>
        <defs>
            <clipPath id="clip0">
                <path fill="#fff" d="M0 0h80v80H0z"></path>
            </clipPath>
        </defs>
    </symbol>
    <symbol fill="none" xmlns="http://www.w3.org/2000/svg" viewBox="0 0 80 80" id="historical">
        <g clip-path="url(#clip0)" fill="#fff">
            <path d="M51.727 69.165c1.01-1.093 1.443-2.434 1.443-3.915 0-1.487-.425-2.836-1.443-3.929-.992-1.065-2.245-1.557-3.689-1.557-1.447 0-2.714.478-3.714 1.54-1.023 1.088-1.444 2.433-1.444 3.92 0 1.495.42 2.857 1.448 3.954.996 1.066 2.25 1.557 3.697 1.557 1.452 0 2.71-.495 3.702-1.57zM46.404 67.4c-.482-.615-.628-1.398-.628-2.164 0-.76.159-1.513.646-2.11.416-.513.943-.77 1.603-.77.664 0 1.204.244 1.616.77.483.61.633 1.376.633 2.137 0 .761-.16 1.522-.637 2.128-.416.526-.948.778-1.612.778-.669 0-1.204-.243-1.62-.77zm-5.069-7.459h-5.198a1.22 1.22 0 00-.908.394 1.284 1.284 0 00-.367.907c0 .367.128.686.39.942.243.23.535.367.872.367h1.213v6.707c0 .384.142.72.411.99l.005.01.009.004c.283.252.62.407 1 .407.377 0 .705-.15.966-.42.265-.275.407-.607.407-.991v-6.693h1.2c.35 0 .66-.128.907-.381.248-.252.381-.562.381-.916 0-.358-.128-.677-.376-.933a1.235 1.235 0 00-.912-.394zm-10.069 7.826c-.225.172-.5.234-.783.234-.439 0-.948-.154-1.355-.305-.288-.101-.775-.278-1.076-.278-.354 0-.664.132-.899.397a1.38 1.38 0 00-.35.956v.07c0 .682.536 1.11 1.098 1.38.762.364 1.639.474 2.471.474 1.08 0 2.13-.261 2.958-.995.775-.69 1.138-1.575 1.138-2.614 0-1.098-.425-1.991-1.364-2.566-.58-.372-1.372-.62-2.032-.81a8.235 8.235 0 01-.788-.248 1.63 1.63 0 01-.337-.15c-.084-.071-.181-.168-.181-.288 0-.168.084-.283.212-.38.186-.137.403-.19.629-.19.216 0 .496.07.703.128l.395.137c.243.08.567.182.823.182.359 0 .664-.142.903-.407.24-.261.36-.58.36-.934 0-.615-.421-1.035-.931-1.313-.633-.341-1.363-.456-2.072-.456-1.04 0-2.01.274-2.811.955-.753.65-1.134 1.487-1.134 2.486 0 .951.35 1.744 1.151 2.265.24.16.532.284.802.39.394.15.801.278 1.209.398.376.11.819.238 1.177.402.098.045.23.12.288.217a.68.68 0 01.075.323c0 .23-.092.398-.279.54zm35.527 2.486c.275.265.603.416.983.416.39 0 .73-.15.996-.438a1.43 1.43 0 00.403-1v-3.583l2.6-3.557c.185-.252.273-.54.273-.85 0-.389-.15-.725-.433-.99a1.382 1.382 0 00-.979-.407c-.482 0-.872.212-1.142.61l-1.718 2.464-1.704-2.464a1.309 1.309 0 00-1.143-.61 1.4 1.4 0 00-1.027.42 1.354 1.354 0 00-.416.977c0 .315.12.602.306.85l2.572 3.557v3.583c0 .398.142.748.43 1.022zm-4.211-6.897c0-.973-.34-1.809-1.07-2.46-.744-.663-1.661-.937-2.653-.937h-2.568c-.394 0-.74.137-1.014.416a1.415 1.415 0 00-.416 1.035v7.82c0 .395.137.74.416 1.018l.005.01.004.004c.288.252.62.407 1.005.407.376 0 .713-.132.983-.403.27-.274.403-.61.403-.995v-2.26l2.502 3.078c.283.35.646.58 1.102.58.38 0 .721-.137 1.005-.398l.009-.005.004-.008c.257-.284.408-.616.408-1 0-.35-.129-.655-.363-.916l-1.886-2.075c.318-.088.642-.207.894-.38.868-.598 1.23-1.491 1.23-2.53zm-3.068.668a.892.892 0 01-.642.261H57.69v-1.703h1.156c.252 0 .478.066.66.252l.004.005.009.004a.732.732 0 01.266.57.814.814 0 01-.27.611zm-41.578 6.247c.27.274.606.411.991.411.39 0 .726-.145.997-.429a1.39 1.39 0 00.402-.982v-8.003a1.42 1.42 0 00-.412-1.021 1.358 1.358 0 00-.986-.416c-.386 0-.718.163-.984.442-.26.279-.416.61-.416.995v2.557h-3.67v-2.557c0-.39-.137-.73-.403-1.008a1.32 1.32 0 00-.983-.43c-.39 0-.726.16-.997.443a1.412 1.412 0 00-.416.995v8.003c0 .389.137.73.416 1.004.275.27.611.407.997.407.385 0 .721-.137.987-.411.27-.274.398-.615.398-1v-2.835h3.671v2.835c0 .389.137.725.408 1zm4.79-9.998c-.261.279-.416.61-.416.995v7.99c0 .384.137.726.407 1 .27.274.611.41.992.41.385 0 .721-.136.992-.41.27-.27.407-.602.407-.987v-8.003c0-.39-.133-.73-.403-1.009a1.322 1.322 0 00-.983-.429c-.39 0-.726.16-.996.443z"></path>
            <path d="M78.425 24.957H19.78l57.574-11.13a1.577 1.577 0 001.248-1.847l-1.74-8.984a1.576 1.576 0 00-1.846-1.248l-16.499 3.19a1.52 1.52 0 00-.103.019L8.54 14.597l-.016.003-7.247 1.401a1.576 1.576 0 00-1.248 1.847l1.711 8.836v50.023c0 .87.706 1.576 1.576 1.576h30.085a1.576 1.576 0 100-3.151H4.89v-37.87h71.96v37.87H47.587a1.576 1.576 0 100 3.151h30.838c.87 0 1.575-.705 1.575-1.576V26.533c0-.87-.706-1.576-1.575-1.576zM53.17 34.11l4.505-6.001h8.766l-4.505 6.001H53.17zm-12.708 0l4.502-6.001h8.77L49.23 34.11h-8.767zm-12.711 0l4.506-6.001h8.767l-4.502 6.001h-8.771zm-12.707 0l4.506-6.001h8.766l-4.505 6.001h-8.767zM4.891 26.533a1.613 1.613 0 013.225 0 1.613 1.613 0 01-3.225 0zM20.947 15.41l6.302 4.895-8.367 1.617-6.299-4.895 8.364-1.617zm12.476-2.412l6.301 4.895-8.362 1.617-6.302-4.895 8.363-1.617zm12.476-2.411l6.3 4.894-8.361 1.617-6.301-4.894 8.362-1.617zm12.48-2.412l6.298 4.894-8.364 1.617-6.3-4.894 8.367-1.617zm16.83 2.858l-6.42 1.241-6.297-4.894 11.577-2.24 1.14 5.891zM8.47 17.82l6.3 4.897-4.525.874a4.757 4.757 0 00-6.122-1.179l-.7-3.616 5.047-.976zM4.891 31.014a4.74 4.74 0 001.613.281 4.771 4.771 0 004.494-3.185h4.612l-4.505 6.001H4.89v-3.097zm60.987 3.097l4.505-6.001h6.466v6.001H65.878z"></path>
            <path d="M70.49 54.04c.87 0 1.576-.704 1.576-1.575V46.02c0-.87-.706-1.576-1.576-1.576H10.364c-.87 0-1.576.706-1.576 1.576v6.445c0 .87.706 1.575 1.576 1.575H70.49zm-1.575-3.15h-17.53v-3.295h17.53v3.294zm-20.681 0H30.018v-3.295h18.216v3.294zM11.94 47.594h14.926v3.294H11.94v-3.294zm28.611 27.538h-.026a1.575 1.575 0 100 3.151h.026a1.576 1.576 0 100-3.151z"></path>
        </g>
        <defs>
            <clipPath id="clip0">
                <path fill="#fff" d="M0 0h80v80H0z"></path>
            </clipPath>
        </defs>
    </symbol>
    <symbol fill="none" xmlns="http://www.w3.org/2000/svg" viewBox="0 0 80 80" id="horror">
        <g clip-path="url(#clip0)" fill="#fff">
            <path d="M77.919 25.107a4.409 4.409 0 00-6.115-2.194 48.306 48.306 0 00-5.915 3.667v-.693a25.886 25.886 0 10-51.771 0v.693a48.31 48.31 0 00-5.916-3.667 4.41 4.41 0 00-4.783 7.37 53.254 53.254 0 019.764 10.452c-.534 4.285-1.3 8.537-2.291 12.739L7.417 67.615a1.094 1.094 0 00.875 1.338l4.088.713a5.141 5.141 0 013.522 2.413l.497.826a7.35 7.35 0 007.078 3.505l.964-.106a5.156 5.156 0 014.042 1.328l.643.591a7.33 7.33 0 007.933 1.308l.858-.38a5.167 5.167 0 014.167 0l.858.38a7.324 7.324 0 007.933-1.308l.643-.59a5.157 5.157 0 014.043-1.329l.963.106a7.342 7.342 0 007.078-3.506l.5-.824a5.14 5.14 0 013.522-2.413l4.089-.714a1.094 1.094 0 00.875-1.338l-3.473-14.132a120.072 120.072 0 01-2.294-12.75 53.253 53.253 0 019.764-10.452 4.395 4.395 0 001.334-5.174zm-2.678 3.448a55.229 55.229 0 00-10.477 11.32 1.101 1.101 0 00-.168.727 122.29 122.29 0 002.388 13.395l3.195 13-2.937.513a7.324 7.324 0 00-5.02 3.437l-.5.825a5.16 5.16 0 01-4.966 2.46l-.965-.106a7.332 7.332 0 00-5.76 1.892l-.643.592a5.14 5.14 0 01-5.567.918l-.857-.38a7.334 7.334 0 00-5.938 0l-.857.38a5.142 5.142 0 01-5.566-.918l-.644-.592a7.333 7.333 0 00-5.76-1.892l-.965.105a5.164 5.164 0 01-4.966-2.458l-.497-.826a7.324 7.324 0 00-5.02-3.437l-2.937-.513 3.197-13.012a122.32 122.32 0 002.386-13.387 1.095 1.095 0 00-.168-.726 55.23 55.23 0 00-10.47-11.317 2.223 2.223 0 012.418-3.706 43.498 43.498 0 017.291 4.776 1.094 1.094 0 001.791-.812c.024-.975.043-1.949.043-2.924a23.698 23.698 0 1147.396 0c0 .975.019 1.95.043 2.924a1.094 1.094 0 001.79.815 43.496 43.496 0 017.291-4.776 2.219 2.219 0 013.08 1.106 2.205 2.205 0 01-.661 2.597z"></path>
            <path d="M31.914 13.828c-2.52 0-4.57 2.506-4.57 5.586 0 3.08 2.05 5.586 4.57 5.586 2.52 0 4.57-2.506 4.57-5.586 0-3.079-2.047-5.586-4.57-5.586zm0 8.985c-1.292 0-2.383-1.557-2.383-3.399 0-1.841 1.094-3.398 2.383-3.398 1.288 0 2.383 1.556 2.383 3.398 0 1.843-1.091 3.398-2.383 3.398zm16.172-8.985c-2.52 0-4.57 2.506-4.57 5.586 0 3.08 2.05 5.586 4.57 5.586 2.52 0 4.57-2.506 4.57-5.586 0-3.079-2.05-5.586-4.57-5.586zm0 8.985c-1.292 0-2.383-1.557-2.383-3.399 0-1.841 1.091-3.398 2.383-3.398 1.29 0 2.383 1.556 2.383 3.398 0 1.843-1.094 3.398-2.383 3.398zM40 24.297c-2.65 0-4.727 3.174-4.727 7.227 0 4.052 2.077 7.226 4.727 7.226 2.65 0 4.726-3.174 4.726-7.226S42.65 24.297 40 24.297zm0 12.265c-1.199 0-2.54-2.154-2.54-5.038 0-2.884 1.341-5.04 2.54-5.04s2.539 2.155 2.539 5.04c0 2.884-1.34 5.038-2.539 5.038z"></path>
        </g>
        <defs>
            <clipPath id="clip0">
                <path fill="#fff" d="M0 0h80v80H0z"></path>
            </clipPath>
        </defs>
    </symbol>
    <symbol fill="none" xmlns="http://www.w3.org/2000/svg" viewBox="0 0 81 81" id="sci-fi">
        <path d="M27.652 52.142V30.344a1.081 1.081 0 011.081-1.08h33.96c6.11.662 11.423 4.378 16.24 11.36a1.082 1.082 0 010 1.227c-4.816 6.992-10.13 10.703-16.243 11.36a1.02 1.02 0 01-.115.007H28.733a1.08 1.08 0 01-1.081-1.076zm2.162-20.717v19.636h32.704c5.324-.587 9.854-3.714 14.205-9.813-4.353-6.096-8.883-9.223-14.206-9.818l-32.703-.005z"
              fill="#fff"></path>
        <path d="M25.418 24.774a1.082 1.082 0 01.347-.794l1.587-1.462a11.428 11.428 0 0112.192-2.198l.13.055a18.194 18.194 0 019.56 9.602 1.081 1.081 0 01-1.017 1.448h-15.21a1.08 1.08 0 01-.916-.509 14.453 14.453 0 00-6.005-5.14 1.082 1.082 0 01-.648-.811 1.126 1.126 0 01-.02-.19zm13.7-3.46l-.423.994a9.26 9.26 0 00-9.878 1.8l-.446.411a16.412 16.412 0 015.22 4.744h12.895a16.533 16.533 0 00-7.675-6.906l.308-1.042zm-13.7 36.407a1.08 1.08 0 01.665-1.001 14.453 14.453 0 006.005-5.14 1.082 1.082 0 01.916-.51h15.213a1.081 1.081 0 011.017 1.45 18.195 18.195 0 01-9.56 9.6l-.13.056a11.428 11.428 0 01-12.192-2.198l-1.587-1.462a1.082 1.082 0 01-.347-.794zm8.173-4.488a16.413 16.413 0 01-5.22 4.744l.446.41a9.261 9.261 0 009.875 1.8l.54.942-.432-.99a16.533 16.533 0 007.676-6.906H33.59zm23.757-11.985a5.694 5.694 0 115.694 5.693 5.7 5.7 0 01-5.694-5.693zm9.225 0a3.532 3.532 0 10-7.064-.002 3.532 3.532 0 007.064.002zm-43.39 9.775v-19.56a1.081 1.081 0 011.08-1.081h4.47a1.081 1.081 0 011.081 1.081v19.56a1.08 1.08 0 01-1.081 1.081h-4.47a1.08 1.08 0 01-1.08-1.08zm2.162-18.479v17.398h2.307V32.544h-2.307z"
              fill="#fff"></path>
        <path d="M3.449 41.32a3.602 3.602 0 012.4-3.23 26.848 26.848 0 005.931-3.654c3.181-2.425 5.694-4.34 12.845-1.8a1.081 1.081 0 01.72 1.018v15.162a1.08 1.08 0 01-.72 1.019 17.985 17.985 0 01-5.874 1.227c-3.05 0-4.878-1.366-6.993-2.948a27.146 27.146 0 00-5.91-3.58 3.58 3.58 0 01-2.4-3.207v-.007zm19.734-6.892c-5.47-1.796-7.146-.518-10.092 1.73a29.058 29.058 0 01-6.379 3.917c-.69.3-1.101.767-1.101 1.248 0 .475.41.934 1.092 1.228a29.395 29.395 0 016.35 3.834c2.027 1.514 3.366 2.518 5.698 2.518a14.63 14.63 0 004.433-.857l-.001-13.618z"
              fill="#fff"></path>
        <path d="M13.675 41.283a2.378 2.378 0 011.544-2.135 13.266 13.266 0 002.92-1.797c1.605-1.22 2.99-2.27 6.45-1.2a1.08 1.08 0 01.756 1.033v8.108a1.08 1.08 0 01-.757 1.032 8.728 8.728 0 01-2.569.458 6.054 6.054 0 01-3.891-1.61 13.44 13.44 0 00-2.908-1.762 2.37 2.37 0 01-1.545-2.123v-.004zm9.508-3.278c-1.797-.413-2.46.09-3.739 1.062a15.348 15.348 0 01-3.362 2.06.562.562 0 00-.246.172c.017-.016.084.055.239.12a15.425 15.425 0 013.35 2.021 4.073 4.073 0 002.595 1.18 5.226 5.226 0 001.167-.153l-.004-6.462zm10.487 3.243a1.081 1.081 0 011.08-1.081h6.338a1.08 1.08 0 110 2.162H34.75a1.081 1.081 0 01-1.08-1.081zm.026-5.081a1.08 1.08 0 011.081-1.081h2.787a1.081 1.081 0 010 2.162h-2.787a1.081 1.081 0 01-1.081-1.081zm0 10.149a1.08 1.08 0 011.081-1.081h2.787a1.081 1.081 0 010 2.162h-2.787a1.081 1.081 0 01-1.081-1.081z"
              fill="#fff"></path>
    </symbol>
    <symbol fill="none" xmlns="http://www.w3.org/2000/svg" viewBox="0 0 80 80" id="romance">
        <g clip-path="url(#clip0)" fill="#fff">
            <path d="M79.246 32.261c0-5.762-2.19-11.165-6.165-15.214-3.998-4.07-9.36-6.313-15.098-6.313A21.474 21.474 0 0040 20.424a21.474 21.474 0 00-17.983-9.69c-5.738 0-11.1 2.243-15.098 6.313C2.944 21.098.754 26.5.754 32.263c0 5.4 1.563 8.557 2.82 11.094l.136.276c5.2 10.535 34.274 34.7 35.51 35.723l.778.645.78-.643c.03-.025 2.772-2.287 6.677-5.675a267.097 267.097 0 006.564 5.672l.778.646.78-.644c.764-.63 18.746-15.5 21.823-21.994l.085-.18c.743-1.562 1.76-3.702 1.76-6.957 0-2.825-.826-5.498-2.392-7.782 1.052-2.256 2.393-5.51 2.393-10.181zm-3.97 23.87l-.087.184C72.684 61.6 58.325 73.858 54.8 76.817a279.255 279.255 0 01-6.516-5.676c-4.278-3.849-7.71-7.2-10.133-9.882a48.924 48.924 0 01-1.784-2.077 30.454 30.454 0 01-.578-.738c-.628-.83-1.094-1.55-1.389-2.147l-.05-.103c-.715-1.446-1.525-3.085-1.525-5.969 0-6.268 4.827-11.177 10.99-11.177 4.166 0 7.96 2.294 9.9 5.986l1.083 2.06 1.083-2.06a11.157 11.157 0 019.9-5.986c3.431 0 6.597 1.557 8.687 4.272 1.524 1.98 2.33 4.368 2.33 6.905 0 2.703-.81 4.405-1.523 5.907zm-.17-15.767l-.017-.015a13.56 13.56 0 00-.413-.383l-.073-.065a13.504 13.504 0 00-.966-.773l-.041-.028c-.148-.107-.299-.21-.451-.31l-.07-.047a13.027 13.027 0 00-1.061-.62l-.06-.031a12.17 12.17 0 00-.486-.24l-.063-.03a12.898 12.898 0 00-1.14-.461l-.076-.026c-.172-.06-.345-.116-.52-.168l-.051-.016a13.17 13.17 0 00-.548-.148l-.107-.027a13.015 13.015 0 00-.548-.12l-.093-.017a13.48 13.48 0 00-.555-.094l-.031-.005c-.191-.028-.383-.05-.576-.07l-.11-.01a13.614 13.614 0 00-.566-.041l-.105-.005A13.589 13.589 0 0054.8 42.16a13.59 13.59 0 00-10.983-5.56c-.681 0-1.354.05-2.014.148a13.215 13.215 0 00-7.535 3.852c-2.507 2.56-3.888 5.978-3.888 9.625 0 3.456.986 5.45 1.778 7.053l.05.102c.047.095.097.191.15.29l.053.096.115.206.072.121.115.193c.027.045.057.09.086.136l.12.19c.03.048.064.098.097.147.041.063.083.126.127.19.034.052.071.104.107.156l.135.194.118.164.144.197.127.172.152.202.138.179a44.71 44.71 0 00.477.603 40.865 40.865 0 00.69.83l.175.205a52.564 52.564 0 00.382.44l.206.233a89.696 89.696 0 00.611.68 56.89 56.89 0 00.437.473l.233.25.222.236.24.253.233.244.25.26.241.249.264.27.245.25.283.285.245.246.3.3a120.416 120.416 0 00.799.787l.283.276.299.29c.099.096.2.194.302.29l.297.286c.103.1.209.2.314.3l.305.29.318.3c.106.1.211.2.319.3.108.103.22.206.33.31l.321.3.348.322a130.61 130.61 0 001.016.935l.36.329.215.196a424.385 424.385 0 01-5.62 4.787c-4.739-3.981-29.584-25.122-34.099-34.27l-.138-.278c-1.202-2.428-2.565-5.18-2.565-10.009 0-10.699 8.265-19.08 18.816-19.08a19.046 19.046 0 0116.9 10.218L40 25.46l1.083-2.06a19.046 19.046 0 0116.9-10.219c10.551 0 18.816 8.381 18.816 19.08 0 3.517-.835 6.1-1.694 8.103zM23.113 0h-2.447v7.618h2.447V0zm9.347 2.222l-3.2 6.914 2.221 1.027L34.68 3.25l-2.22-1.028zm-21.141-.001L9.098 3.248l3.198 6.914 2.22-1.027-3.197-6.914z"></path>
            <path d="M8.424 33.597c0-.114 0-.23.003-.344l-2.446-.05c-.003.13-.004.262-.004.394 0 1.641.166 3.137.51 4.572l2.38-.57c-.299-1.246-.443-2.555-.443-4.002zm3.316-13.449c-2.932 2.755-4.896 6.48-5.531 10.488l2.417.383a15.94 15.94 0 014.79-9.088l-1.677-1.783zm28.956 21.545c-3.364 1.56-5.565 4.873-5.742 8.644l2.444.115c.134-2.858 1.793-5.363 4.327-6.539l-1.03-2.22z"></path>
        </g>
        <defs>
            <clipPath id="clip0">
                <path fill="#fff" d="M0 0h80v80H0z"></path>
            </clipPath>
        </defs>
    </symbol>
</svg>