<svg width="0" height="0" class="hidden">
    <symbol fill="none" xmlns="http://www.w3.org/2000/svg" viewBox="0 0 10 18" id="face">
        <path d="M6.065 17.997V9.801H8.83l.411-3.209H6.065V4.548c0-.926.258-1.56 1.587-1.56h1.684V.128C8.516.038 7.693-.004 6.869 0 4.425 0 2.747 1.492 2.747 4.231v2.355H0v3.21h2.753v8.201h3.312z"
              fill="#fff"></path>
    </symbol>
    <symbol fill="none" xmlns="http://www.w3.org/2000/svg" viewBox="0 0 20 20" id="inst">
        <path d="M9.805 5.801A4 4 0 005.8 9.807a4 4 0 004.006 4.006 4 4 0 004.006-4.006 4 4 0 00-4.006-4.006zm0 6.61a2.609 2.609 0 01-2.603-2.604 2.609 2.609 0 012.603-2.603 2.609 2.609 0 012.604 2.603 2.609 2.609 0 01-2.604 2.604zm4.17-7.707a.934.934 0 100 1.87.933.933 0 00.865-1.293.933.933 0 00-.865-.577zm3.639 5.103c0-1.078.01-2.146-.05-3.222-.061-1.25-.347-2.36-1.26-3.274-.917-.916-2.024-1.2-3.274-1.26-1.078-.06-2.147-.05-3.223-.05-1.078 0-2.146-.01-3.222.05-1.25.06-2.36.346-3.274 1.26-.916.916-1.2 2.024-1.26 3.274-.06 1.078-.05 2.146-.05 3.222s-.01 2.147.05 3.223c.06 1.25.346 2.36 1.26 3.273.916.916 2.024 1.2 3.274 1.26 1.078.06 2.146.05 3.222.05 1.078 0 2.147.01 3.223-.05 1.25-.06 2.36-.346 3.273-1.26.916-.916 1.2-2.023 1.26-3.273.063-1.076.05-2.145.05-3.223zm-1.719 4.606a2.481 2.481 0 01-.59.894 2.5 2.5 0 01-.894.59c-1.028.408-3.467.316-4.606.316-1.138 0-3.58.092-4.607-.314a2.482 2.482 0 01-.895-.59 2.499 2.499 0 01-.59-.894c-.406-1.03-.314-3.47-.314-4.608 0-1.138-.092-3.58.314-4.607.143-.356.315-.621.59-.895.276-.273.54-.447.895-.59 1.027-.406 3.469-.314 4.607-.314 1.139 0 3.58-.092 4.608.314a2.5 2.5 0 01.894.59c.276.276.447.54.59.895.406 1.027.315 3.469.315 4.607 0 1.139.091 3.578-.317 4.606z"
              fill="#fff"></path>
    </symbol>
    <symbol fill="none" xmlns="http://www.w3.org/2000/svg" viewBox="0 0 14 14" id="link">
        <g clip-path="url(#clip0)">
            <path d="M3.178 13.999V4.553h-3V14h3zm-1.5-10.736c1.047 0 1.698-.726 1.698-1.632C3.356.704 2.725 0 1.698 0S0 .704 0 1.631c0 .907.651 1.632 1.658 1.632h.02zM4.84 13.999h3V8.724c0-.282.02-.564.099-.766.217-.564.71-1.148 1.54-1.148 1.086 0 1.52.866 1.52 2.136v5.053H14V8.583c0-2.902-1.48-4.252-3.455-4.252-1.619 0-2.33.947-2.725 1.592h.02v-1.37h-3c.039.886 0 9.446 0 9.446z"
                  fill="#fff"></path>
        </g>
        <defs>
            <clipPath id="clip0">
                <path fill="#fff" d="M0 0h14v14H0z"></path>
            </clipPath>
        </defs>
    </symbol>
    <symbol fill="none" xmlns="http://www.w3.org/2000/svg" viewBox="0 0 23 16" id="twit">
        <path d="M22.222 1.872a10.13 10.13 0 01-2.622.615c.95-.493 1.663-1.272 2.003-2.19a9.822 9.822 0 01-2.89.96A4.595 4.595 0 0017.2.326 5.116 5.116 0 0015.385 0c-2.523 0-4.553 1.786-4.553 3.977 0 .308.043.616.112.912C7.165 4.716 3.795 3.14 1.554.727a3.571 3.571 0 00-.62 2.008c0 1.38.805 2.597 2.03 3.312a5.11 5.11 0 01-2.059-.506v.05c0 1.932 1.565 3.534 3.651 3.902a5.487 5.487 0 01-1.199.135 7.12 7.12 0 01-.86-.06c.577 1.575 2.257 2.72 4.257 2.757-1.565 1.07-3.525 1.7-5.654 1.7-.382 0-.734-.012-1.1-.05 2.019 1.132 4.415 1.784 6.994 1.784 8.376 0 12.958-6.056 12.958-11.313 0-.173 0-.345-.013-.518a9.23 9.23 0 002.283-2.056z"
              fill="#fff"></path>
    </symbol>
</svg>